<svg xmlns="http://www.w3.org/2000/svg" viewBox="0 0 1200 600" role="img" aria-label="Cute city trip banner">
  <defs>
    <linearGradient id="bg" x1="0" y1="0" x2="1" y2="1">
      <stop offset="0%" stop-color="#e6ecff"/>
      <stop offset="100%" stop-color="#f7e8ff"/>
    </linearGradient>
  </defs>
  <rect width="1200" height="600" fill="url(#bg)"/>
  <circle cx="1020" cy="110" r="54" fill="#fff6a3"/>
  <rect x="0" y="470" width="1200" height="130" fill="#d2dcff"/>
  <g fill="#ffffff" stroke="#a6b3e6" stroke-width="10">
    <rect x="180" y="210" width="180" height="260" rx="18"/>
    <rect x="390" y="160" width="180" height="310" rx="18"/>
    <rect x="600" y="230" width="180" height="240" rx="18"/>
    <rect x="810" y="180" width="180" height="290" rx="18"/>
  </g>
  <g fill="#c9d3ff">
    <rect x="220" y="250" width="28" height="28"/>
    <rect x="260" y="250" width="28" height="28"/>
    <rect x="430" y="210" width="28" height="28"/>
    <rect x="470" y="210" width="28" height="28"/>
    <rect x="640" y="270" width="28" height="28"/>
    <rect x="680" y="270" width="28" height="28"/>
    <rect x="850" y="230" width="28" height="28"/>
    <rect x="890" y="230" width="28" height="28"/>
  </g>
  <text x="600" y="550" text-anchor="middle" font-family="Verdana, sans-serif" font-size="46" fill="#5c689a">city discovery</text>
</svg>
