<svg xmlns="http://www.w3.org/2000/svg" viewBox="0 0 1200 600" role="img" aria-label="Cute desert trip banner">
  <defs>
    <linearGradient id="bg" x1="0" y1="0" x2="1" y2="1">
      <stop offset="0%" stop-color="#ffe9bf"/>
      <stop offset="100%" stop-color="#ffd7a0"/>
    </linearGradient>
  </defs>
  <rect width="1200" height="600" fill="url(#bg)"/>
  <circle cx="160" cy="130" r="62" fill="#ffcc66"/>
  <path d="M0 440 C220 360 360 500 560 430 C760 360 940 500 1200 430 L1200 600 L0 600 Z" fill="#f4b870"/>
  <path d="M0 500 C200 430 420 560 620 500 C840 430 1040 560 1200 500 L1200 600 L0 600 Z" fill="#eaa55f"/>
  <g fill="#a86a3f">
    <ellipse cx="420" cy="390" rx="90" ry="40"/>
    <ellipse cx="520" cy="390" rx="90" ry="40"/>
    <rect x="420" y="350" width="190" height="48" rx="24"/>
  </g>
  <text x="600" y="560" text-anchor="middle" font-family="Verdana, sans-serif" font-size="46" fill="#7a4c2d">desert route</text>
</svg>
